<?xml version="1.0" encoding="UTF-8" standalone="no"?>
<!-- Created with Inkscape (http://www.inkscape.org/) -->

<svg
   width="926"
   height="347"
   viewBox="0 0 245.00417 91.810416"
   version="1.1"
   id="svg5"
   inkscape:version="1.2.2 (732a01da63, 2022-12-09)"
   sodipodi:docname="training.svg"
   xmlns:inkscape="http://www.inkscape.org/namespaces/inkscape"
   xmlns:sodipodi="http://sodipodi.sourceforge.net/DTD/sodipodi-0.dtd"
   xmlns="http://www.w3.org/2000/svg"
   xmlns:svg="http://www.w3.org/2000/svg">
  <sodipodi:namedview
     id="namedview7"
     pagecolor="#ffffff"
     bordercolor="#cccccc"
     borderopacity="1"
     inkscape:showpageshadow="0"
     inkscape:pageopacity="1"
     inkscape:pagecheckerboard="0"
     inkscape:deskcolor="#d1d1d1"
     inkscape:document-units="mm"
     showgrid="false"
     inkscape:zoom="1.0885159"
     inkscape:cx="470.82454"
     inkscape:cy="129.07483"
     inkscape:window-width="1920"
     inkscape:window-height="1051"
     inkscape:window-x="-9"
     inkscape:window-y="-9"
     inkscape:window-maximized="1"
     inkscape:current-layer="layer1" />
  <defs
     id="defs2" />
  <g
     inkscape:label="Layer 1"
     inkscape:groupmode="layer"
     id="layer1">
    <g
       id="g1221"
       transform="translate(-0.18729121,-0.79616056)">
      <g
         id="bold"
         transform="matrix(2.516666,0,0,2.516666,-14.866052,5.6385523)">
        <g
           fill="#d9a4fc"
           id="g15">
          <path
             d="m 12,14 c -0.368,0 -0.667,-0.299 -0.667,-0.667 V 12.666 C 11.333,12.298 11.631,12 12,12 c 0.369,0 0.667,0.299 0.667,0.667 v 0.667 C 12.667,13.701 12.368,14 12,14 Z"
             id="id_111" />
          <path
             d="m 19.333,14 c -0.368,0 -0.667,-0.299 -0.667,-0.667 v -0.667 c 0,-0.368 0.298,-0.667 0.667,-0.667 C 19.702,12 20,12.298 20,12.667 v 0.667 C 20,13.701 19.702,14 19.333,14 Z"
             id="id_112" />
          <path
             d="M 14.667,18 H 14 c -0.368,0 -0.667,-0.299 -0.667,-0.667 0,-0.368 0.298,-0.667 0.667,-0.667 h 0.667 c 0.368,0 0.667,-0.299 0.667,-0.667 V 12.666 C 15.333,12.298 15.632,12 16,12 c 0.368,0 0.667,0.299 0.667,0.667 V 16 c 0,1.103 -0.897,2 -2,2 z"
             id="id_113" />
          <path
             d="m 15.667,21.333 c -1.189,0 -2.303,-0.637 -2.908,-1.661 -0.187,-0.317 -0.081,-0.726 0.236,-0.913 0.316,-0.188 0.725,-0.082 0.913,0.236 0.366,0.62 1.04,1.005 1.759,1.005 0.719,0 1.393,-0.385 1.759,-1.005 0.187,-0.318 0.595,-0.423 0.913,-0.236 0.317,0.187 0.423,0.596 0.236,0.913 -0.605,1.025 -1.719,1.661 -2.908,1.661 z"
             id="id_114" />
        </g>
        <path
           d="m 23.333,13.333 c -0.368,0 -0.667,-0.299 -0.667,-0.667 V 10 c 0,-0.368 -0.299,-0.667 -0.667,-0.667 H 19.332 C 18.964,9.333 18.665,9.034 18.665,8.666 18.665,8.298 18.965,8 19.333,8 H 22 c 1.103,0 2,0.897 2,2 v 2.667 c 0,0.368 -0.298,0.666 -0.667,0.666 z"
           fill="#be63f9"
           id="id_115" />
        <path
           d="M 8.667,13.333 C 8.298,13.333 8,13.035 8,12.667 V 10 C 8,8.897 8.897,8 10,8 h 2.667 c 0.368,0 0.667,0.299 0.667,0.667 0,0.368 -0.299,0.667 -0.667,0.667 H 10 c -0.368,0 -0.667,0.299 -0.667,0.667 v 2.667 c 0,0.367 -0.298,0.665 -0.666,0.665 z"
           fill="#be63f9"
           id="id_116" />
        <path
           d="m 22,24 h -2.667 c -0.368,0 -0.667,-0.299 -0.667,-0.667 0,-0.368 0.299,-0.667 0.667,-0.667 H 22 c 0.368,0 0.667,-0.299 0.667,-0.667 v -2.667 c 0,-0.368 0.299,-0.667 0.667,-0.667 0.368,0 0.666,0.3 0.666,0.668 V 22 c 0,1.103 -0.897,2 -2,2 z"
           fill="#be63f9"
           id="id_117" />
        <path
           d="M 12.667,24 H 10 C 8.897,24 8,23.103 8,22 v -2.667 c 0,-0.368 0.299,-0.667 0.667,-0.667 0.368,0 0.667,0.299 0.667,0.667 V 22 c 0,0.368 0.299,0.667 0.667,0.667 h 2.667 c 0.368,0 0.667,0.299 0.667,0.667 0,0.368 -0.3,0.666 -0.668,0.666 z"
           fill="#be63f9"
           id="id_118" />
      </g>
      <g
         id="g411"
         transform="matrix(2.516666,0,0,2.516666,-14.866052,5.6385523)">
        <g
           fill="#d9a4fc"
           id="g401">
          <path
             d="m 12,14 c -0.368,0 -0.667,-0.299 -0.667,-0.667 V 12.666 C 11.333,12.298 11.631,12 12,12 c 0.369,0 0.667,0.299 0.667,0.667 v 0.667 C 12.667,13.701 12.368,14 12,14 Z"
             id="path393" />
          <path
             d="m 19.333,14 c -0.368,0 -0.667,-0.299 -0.667,-0.667 v -0.667 c 0,-0.368 0.298,-0.667 0.667,-0.667 C 19.702,12 20,12.298 20,12.667 v 0.667 C 20,13.701 19.702,14 19.333,14 Z"
             id="path395" />
          <path
             d="M 14.667,18 H 14 c -0.368,0 -0.667,-0.299 -0.667,-0.667 0,-0.368 0.298,-0.667 0.667,-0.667 h 0.667 c 0.368,0 0.667,-0.299 0.667,-0.667 V 12.666 C 15.333,12.298 15.632,12 16,12 c 0.368,0 0.667,0.299 0.667,0.667 V 16 c 0,1.103 -0.897,2 -2,2 z"
             id="path397" />
          <path
             d="m 15.667,21.333 c -1.189,0 -2.303,-0.637 -2.908,-1.661 -0.187,-0.317 -0.081,-0.726 0.236,-0.913 0.316,-0.188 0.725,-0.082 0.913,0.236 0.366,0.62 1.04,1.005 1.759,1.005 0.719,0 1.393,-0.385 1.759,-1.005 0.187,-0.318 0.595,-0.423 0.913,-0.236 0.317,0.187 0.423,0.596 0.236,0.913 -0.605,1.025 -1.719,1.661 -2.908,1.661 z"
             id="path399" />
        </g>
        <path
           d="m 23.333,13.333 c -0.368,0 -0.667,-0.299 -0.667,-0.667 V 10 c 0,-0.368 -0.299,-0.667 -0.667,-0.667 H 19.332 C 18.964,9.333 18.665,9.034 18.665,8.666 18.665,8.298 18.965,8 19.333,8 H 22 c 1.103,0 2,0.897 2,2 v 2.667 c 0,0.368 -0.298,0.666 -0.667,0.666 z"
           fill="#be63f9"
           id="path403" />
        <path
           d="M 8.667,13.333 C 8.298,13.333 8,13.035 8,12.667 V 10 C 8,8.897 8.897,8 10,8 h 2.667 c 0.368,0 0.667,0.299 0.667,0.667 0,0.368 -0.299,0.667 -0.667,0.667 H 10 c -0.368,0 -0.667,0.299 -0.667,0.667 v 2.667 c 0,0.367 -0.298,0.665 -0.666,0.665 z"
           fill="#be63f9"
           id="path405" />
        <path
           d="m 22,24 h -2.667 c -0.368,0 -0.667,-0.299 -0.667,-0.667 0,-0.368 0.299,-0.667 0.667,-0.667 H 22 c 0.368,0 0.667,-0.299 0.667,-0.667 v -2.667 c 0,-0.368 0.299,-0.667 0.667,-0.667 0.368,0 0.666,0.3 0.666,0.668 V 22 c 0,1.103 -0.897,2 -2,2 z"
           fill="#be63f9"
           id="path407" />
        <path
           d="M 12.667,24 H 10 C 8.897,24 8,23.103 8,22 v -2.667 c 0,-0.368 0.299,-0.667 0.667,-0.667 0.368,0 0.667,0.299 0.667,0.667 V 22 c 0,0.368 0.299,0.667 0.667,0.667 h 2.667 c 0.368,0 0.667,0.299 0.667,0.667 0,0.368 -0.3,0.666 -0.668,0.666 z"
           fill="#be63f9"
           id="path409" />
      </g>
      <text
         xml:space="preserve"
         style="font-weight:bold;font-size:17.6389px;font-family:'Cascadia Mono';-inkscape-font-specification:'Cascadia Mono Bold';fill:#be63f9;fill-opacity:1;stroke-width:15.5466"
         x="54.07618"
         y="41.46534"
         id="text417"><tspan
           sodipodi:role="line"
           id="tspan413"
           style="font-size:17.6389px;fill:#be63f9;fill-opacity:1;stroke-width:15.5466"
           x="54.07618"
           y="41.46534">facial recognition </tspan><tspan
           sodipodi:role="line"
           style="font-size:17.6389px;fill:#be63f9;fill-opacity:1;stroke-width:15.5466"
           x="54.07618"
           y="63.513966"
           id="tspan415">training</tspan></text>
    </g>
    <text
       xml:space="preserve"
       style="font-weight:bold;font-size:2.9986px;font-family:'Cascadia Mono';-inkscape-font-specification:'Cascadia Mono Bold';fill:#34aaff;stroke-width:2.60456"
       x="88.912025"
       y="-27.098339"
       id="text307-7"><tspan
         sodipodi:role="line"
         id="tspan305-3"
         style="stroke-width:2.60456"
         x="88.912025"
         y="-27.098339">facial recognition </tspan><tspan
         sodipodi:role="line"
         style="stroke-width:2.60456"
         x="88.912025"
         y="-23.35009"
         id="tspan309-3">training</tspan></text>
  </g>
</svg>
